<svg xmlns="http://www.w3.org/2000/svg" viewBox="0 0 32 32" shape-rendering="crispEdges">
  <rect x="5" y="2" width="22" height="27" fill="#000"/><rect x="6" y="3" width="20" height="25" fill="#fff"/>
  <rect x="8" y="5" width="16" height="12" fill="#000"/><rect x="9" y="6" width="14" height="10" fill="#fff"/>
  <rect x="11" y="8" width="2" height="2" fill="#000"/><rect x="19" y="8" width="2" height="2" fill="#000"/>
  <rect x="15" y="10" width="1" height="2" fill="#000"/>
  <rect x="12" y="12" width="1" height="1" fill="#000"/><rect x="13" y="13" width="6" height="1" fill="#000"/><rect x="19" y="12" width="1" height="1" fill="#000"/>
  <rect x="9" y="20" width="9" height="1" fill="#000"/><rect x="20" y="20" width="3" height="1" fill="#000"/>
  <rect x="8" y="25" width="16" height="1" fill="#c8c8c8"/><rect x="6" y="29" width="20" height="1" fill="#000"/><rect x="4" y="30" width="24" height="1" fill="#000"/>
</svg>
